<?xml version="1.0" encoding="utf-8"?>
<!-- Generator: Adobe Illustrator 26.3.1, SVG Export Plug-In . SVG Version: 6.00 Build 0)  -->
<svg version="1.1" id="Layer_1" xmlns="http://www.w3.org/2000/svg" xmlns:xlink="http://www.w3.org/1999/xlink" x="0px" y="0px"
	 viewBox="0 0 260 260" style="enable-background:new 0 0 260 260;" xml:space="preserve">
<style type="text/css">
	.st0{fill:#F66A24;}
	.st1{fill:#F7951B;}
	.st2{fill:#F8C213;}
	.st3{fill:#FBC10A;}
	.st4{fill:#FCEF04;}
</style>
<g>
	<g>
		<path class="st0" d="M100.2,160.7c-75-27.4-94.2,43.7-81.5,27C49.5,146.9,100.2,160.7,100.2,160.7z"/>
		<path class="st0" d="M100.9,159.5c-40.2-35-67.8-1.3-56.3-7.1C72.7,138.4,100.9,159.5,100.9,159.5z"/>
		<path class="st0" d="M100.5,164.4c-39.7-6.8-42.8,30.3-38.1,20.8C74.1,162.2,100.5,164.4,100.5,164.4z"/>
		<path class="st0" d="M83.6,160.6c-45.8,0.4-41.8,42.4-38.3,30.9C53.6,163.4,83.6,160.6,83.6,160.6z"/>
	</g>
	<g>
		<path class="st1" d="M107.3,154.4c7.3-79.5-66.4-79.9-47-71.9C107.7,101.8,107.3,154.4,107.3,154.4z"/>
		<path class="st1" d="M108.7,154.8c23.5-47.8-16.1-65.9-7.6-56.2C121.8,122.1,108.7,154.8,108.7,154.8z"/>
		<path class="st1" d="M103.8,155.6c-3.5-40.2-40.2-33.7-29.8-31.5C99.2,129.5,103.8,155.6,103.8,155.6z"/>
		<path class="st1" d="M103.2,138.3c-12-44.2-51.7-29.5-39.7-29.2C92.8,110,103.2,138.3,103.2,138.3z"/>
	</g>
	<g>
		<path class="st2" d="M113.5,159.8c79-11.4,62.1-83.2,59-62.5C164.7,147.9,113.5,159.8,113.5,159.8z"/>
		<path class="st2" d="M113.5,161.3c52,11.7,60.3-31,52.9-20.5C148.3,166.4,113.5,161.3,113.5,161.3z"/>
		<path class="st2" d="M111.5,156.7c38.2-12.8,23.3-47,23.6-36.4C135.8,146.1,111.5,156.7,111.5,156.7z"/>
		<path class="st2" d="M128.2,152.1c40.1-22,16.6-57.2,19.1-45.4C153.3,135.4,128.2,152.1,128.2,152.1z"/>
	</g>
	<g>
		<path class="st3" d="M101.9,169.5c-48,63.8,14.5,102.8,2.2,85.9C74,214,101.9,169.5,101.9,169.5z"/>
		<path class="st3" d="M100.9,168.4c-45.1,28.3-21,64.5-23.1,51.8C72.6,189.3,100.9,168.4,100.9,168.4z"/>
		<path class="st3" d="M105.6,170.2c-18.1,36,16.5,49.8,8.8,42.5C95.7,194.9,105.6,170.2,105.6,170.2z"/>
		<path class="st3" d="M97,185.3c-12.9,43.9,28.5,52.3,18.4,45.7C90.9,214.8,97,185.3,97,185.3z"/>
	</g>
	<g>
		<path class="st4" d="M110.4,170c47,64.5,102.6,16.1,82.8,23C144.9,209.7,110.4,170,110.4,170z"/>
		<path class="st4" d="M109.1,170.6c14,51.4,55.6,38.8,42.8,37.2C120.9,203.9,109.1,170.6,109.1,170.6z"/>
		<path class="st4" d="M112.2,166.8c29.2,27.8,52.4-1.3,43.2,3.9C132.9,183.4,112.2,166.8,112.2,166.8z"/>
		<path class="st4" d="M124.1,179.4c38.2,25.2,58.3-12,49.1-4.3C150.6,193.7,124.1,179.4,124.1,179.4z"/>
	</g>
	<path class="st2" d="M124.6,171.1C279.8,159.8,244.3-70.6,234.4,23C218.2,176,124.6,171.1,124.6,171.1z"/>
</g>
</svg>
